HIERARCHY
ROOT Hips
{
 OFFSET 0.000000 0.000000 0.000000
 CHANNELS 6 Xposition Yposition Zposition Yrotation Xrotation Zrotation
 JOINT Chest
 {
  OFFSET 0.000000 13.173100 -0.061900
  CHANNELS 3 Yrotation Xrotation Zrotation
  JOINT Chest2
  {
   OFFSET 0.000000 8.040800 0.126200
   CHANNELS 3 Yrotation Xrotation Zrotation
   JOINT Chest3
   {
    OFFSET 0.000000 7.994400 0.000000
    CHANNELS 3 Yrotation Xrotation Zrotation
    JOINT Chest4
    {
     OFFSET 0.000000 7.986200 0.000000
     CHANNELS 3 Yrotation Xrotation Zrotation
     JOINT Neck
     {
      OFFSET 0.000000 12.259400 0.000000
      CHANNELS 3 Yrotation Xrotation Zrotation
      JOINT Head
      {
       OFFSET 0.000000 7.518700 0.267100
       CHANNELS 3 Yrotation Xrotation Zrotation
       End Site
       {
        OFFSET 0.000000 13.617700 0.141000
       }
      }
     }
     JOINT RightCollar
     {
      OFFSET -2.983800 8.314300 0.000000
      CHANNELS 3 Yrotation Xrotation Zrotation
      JOINT RightShoulder
      {
       OFFSET -16.133400 0.000000 0.000000
       CHANNELS 3 Yrotation Xrotation Zrotation
       JOINT RightElbow
       {
        OFFSET 0.000000 -29.822100 0.000000
        CHANNELS 3 Yrotation Xrotation Zrotation
        JOINT RightWrist
        {
         OFFSET 0.000000 -24.437700 0.010900
         CHANNELS 3 Yrotation Xrotation Zrotation
         End Site
         {
          OFFSET 0.000000 -18.312300 0.000000
         }
        }
       }
      }
     }
     JOINT LeftCollar
     {
      OFFSET 2.983800 8.314300 0.000000
      CHANNELS 3 Yrotation Xrotation Zrotation
      JOINT LeftShoulder
      {
       OFFSET 16.133400 0.000000 0.000000
       CHANNELS 3 Yrotation Xrotation Zrotation
       JOINT LeftElbow
       {
        OFFSET 0.000000 -29.822100 0.000000
        CHANNELS 3 Yrotation Xrotation Zrotation
        JOINT LeftWrist
        {
         OFFSET 0.000000 -24.437700 0.010900
         CHANNELS 3 Yrotation Xrotation Zrotation
         End Site
         {
          OFFSET 0.000000 -18.312300 0.000000
         }
        }
       }
      }
     }
    }
   }
  }
 }
 JOINT RightHip
 {
  OFFSET -11.206700 0.306200 0.030900
  CHANNELS 3 Yrotation Xrotation Zrotation
  JOINT RightKnee
  {
   OFFSET 0.000000 -57.334900 0.009400
   CHANNELS 3 Yrotation Xrotation Zrotation
   JOINT RightAnkle
   {
    OFFSET 0.000000 -43.376200 0.036600
    CHANNELS 3 Yrotation Xrotation Zrotation
    JOINT RightToe
    {
     OFFSET 0.000000 -10.035500 18.363100
     CHANNELS 3 Yrotation Xrotation Zrotation
     End Site
     {
      OFFSET 0.000000 -1.618500 7.239000
     }
    }
   }
  }
 }
 JOINT LeftHip
 {
  OFFSET 11.206700 0.306200 0.030900
  CHANNELS 3 Yrotation Xrotation Zrotation
  JOINT LeftKnee
  {
   OFFSET 0.000000 -57.334900 0.009400
   CHANNELS 3 Yrotation Xrotation Zrotation
   JOINT LeftAnkle
   {
    OFFSET 0.000000 -43.376200 0.036600
    CHANNELS 3 Yrotation Xrotation Zrotation
    JOINT LeftToe
    {
     OFFSET 0.000000 -10.035500 18.363100
     CHANNELS 3 Yrotation Xrotation Zrotation
     End Site
     {
      OFFSET 0.000000 -1.618500 7.239000
     }
    }
   }
  }
 }
}
MOTION
Frames: 16
Frame Time: 0.008333
-97.261912 64.785908 87.350627 173.954488 -37.221813 -2.919920 2.334245 20.964780 2.060483 0.285346 2.802470 0.366430 0.473444 4.581144 0.616578 2.206417 17.920877 2.659305 0.988329 15.765229 -0.828486 2.147586 -6.525861 -1.928735 -2.179721 1.208110 -2.216210 -9.166742 -1.620545 1.203699 -136.705287 -60.315110 153.885189 21.919457 13.963828 72.688617 -3.023528 0.217510 -0.846683 14.763056 -8.209375 1.996509 82.967921 -39.171919 -129.720762 -18.444920 17.566370 -75.637691 -4.140346 -43.698013 3.720185 -151.859256 87.932412 -147.656264 -1.493749 -9.625215 -2.508607 0.041530 -0.182804 0.015130 -2.648211 -40.547096 4.701602 76.141054 83.084677 65.734844 -6.479214 -13.768886 8.352155 0.459186 1.261580 0.274173
-97.264133 64.772730 87.351637 173.962046 -37.211897 -2.918089 2.325099 20.965820 2.062532 0.284401 2.803321 0.366923 0.472922 4.582078 0.618373 2.198202 17.934198 2.678563 0.985304 15.739532 -0.863111 2.158452 -6.571243 -1.947763 -2.185057 1.157070 -2.235231 -9.239652 -1.669010 1.184036 -135.560928 -59.698158 153.029223 21.575729 13.867616 72.472393 -3.045703 0.165165 -0.864452 14.751520 -8.202861 2.012577 82.444456 -38.461133 -129.645687 -17.849709 17.431649 -75.219230 -4.137993 -43.708789 3.699576 -152.534369 87.944891 -148.315218 -1.512049 -9.629507 -2.525222 0.046569 -0.183095 0.019533 -2.627404 -40.558634 4.692316 76.131797 83.086177 65.726087 -6.498262 -13.768738 8.367249 0.455078 1.258824 0.270497
-97.264846 64.759458 87.353577 173.967572 -37.197215 -2.921054 2.319754 20.963499 2.071990 0.283852 2.812214 0.374870 0.471738 4.572594 0.610832 2.195761 17.931321 2.679037 0.986082 15.721715 -0.869296 2.161816 -6.610404 -1.965219 -2.209030 1.118910 -2.225075 -9.287287 -1.712565 1.152064 -134.493366 -59.095653 152.233105 21.209688 13.802628 72.217342 -3.069664 0.134513 -0.865333 14.738349 -8.196990 2.022811 81.997376 -37.803731 -129.613791 -17.272076 17.296931 -74.794506 -4.119461 -43.725706 3.679009 -153.076284 87.955196 -148.833250 -1.526133 -9.628871 -2.533847 0.048360 -0.184994 0.021839 -2.595962 -40.575610 4.682804 76.114292 83.089845 65.717285 -6.505820 -13.772945 8.377652 0.460498 1.257197 0.273011
-97.267281 64.746441 87.355896 173.967602 -37.178813 -2.913147 2.317486 20.959463 2.073192 0.283428 2.811091 0.377470 0.469608 4.568552 0.608845 2.192999 17.925636 2.671843 0.989887 15.708684 -0.866156 2.160964 -6.651925 -1.978919 -2.213649 1.112167 -2.225615 -9.348315 -1.775219 1.141834 -133.484798 -58.509382 151.484014 20.828317 13.768288 71.952569 -3.102854 0.100470 -0.846691 14.753482 -8.173896 2.017006 81.619668 -37.207907 -129.630678 -16.707643 17.139840 -74.366606 -4.042291 -43.751780 3.615039 -153.748592 87.963645 -149.448717 -1.540731 -9.625332 -2.541932 0.051213 -0.188762 0.024685 -2.585293 -40.594496 4.675358 76.117412 83.087019 65.708929 -6.501385 -13.776866 8.390469 0.441133 1.249071 0.259677
-97.268461 64.736431 87.355948 173.974336 -37.173260 -2.914458 2.310157 20.963861 2.077380 0.286174 2.809229 0.379941 0.467554 4.568079 0.609137 2.183502 17.926126 2.673329 0.991160 15.688149 -0.873419 2.163525 -6.678384 -1.991333 -2.218034 1.089974 -2.231758 -9.398779 -1.825444 1.125495 -132.512471 -57.934302 150.767048 20.450612 13.754656 71.700675 -3.104625 0.085693 -0.855902 14.791222 -8.191112 2.046691 81.270546 -36.640576 -129.681308 -16.157778 16.959592 -73.934436 -4.010944 -43.758612 3.583825 -154.315934 87.973613 -149.987815 -1.553055 -9.623376 -2.545849 0.053778 -0.192055 0.025008 -2.571542 -40.599222 4.673553 76.094976 83.094501 65.683309 -6.506094 -13.780231 8.392322 0.433850 1.249081 0.269358
-97.268283 64.728107 87.355788 173.978531 -37.170355 -2.921972 2.315612 20.974771 2.104034 0.280124 2.800982 0.367723 0.466640 4.565922 0.607341 2.175736 17.934077 2.686972 0.987936 15.649018 -0.884153 2.168550 -6.663394 -2.003929 -2.213373 1.064115 -2.244343 -9.456533 -1.874380 1.111103 -131.576716 -57.366860 150.082451 20.089089 13.745223 71.469067 -3.105306 0.066301 -0.872746 14.822937 -8.194984 2.056388 81.012491 -36.150387 -129.777952 -15.631984 16.775913 -73.500440 -3.988920 -43.759545 3.565227 -154.624519 87.982590 -150.272550 -1.548722 -9.620891 -2.548418 0.049221 -0.194232 0.023940 -2.566530 -40.601967 4.683556 76.085987 83.101270 65.670878 -6.508729 -13.778485 8.395041 0.428191 1.243772 0.275122
-97.268727 64.720948 87.355767 173.980549 -37.167160 -2.928710 2.314456 20.975752 2.114501 0.281156 2.798793 0.364319 0.465887 4.568088 0.609316 2.174143 17.932237 2.684887 0.984425 15.638216 -0.883688 2.170984 -6.705208 -2.016118 -2.222209 1.045370 -2.239848 -9.510968 -1.919120 1.097866 -130.706668 -56.807914 149.461226 19.736824 13.725444 71.242024 -3.128316 0.033935 -0.866553 14.856934 -8.168325 2.059039 80.840617 -35.721565 -129.901421 -15.133635 16.607308 -73.072241 -3.970960 -43.758719 3.551088 -154.888210 87.993797 -150.514127 -1.551075 -9.621823 -2.552517 0.050984 -0.193244 0.024004 -2.564477 -40.602579 4.695914 76.048045 83.109747 65.632519 -6.519684 -13.780005 8.390820 0.450422 1.240751 0.281530
-97.270311 64.715098 87.355398 173.990293 -37.165808 -2.939104 2.304645 20.976715 2.120879 0.282721 2.801167 0.366906 0.459537 4.569941 0.614377 2.168713 17.934116 2.682027 0.981286 15.617133 -0.894487 2.175457 -6.735659 -2.030496 -2.216353 1.020006 -2.246148 -9.586047 -1.959623 1.080937 -129.932813 -56.262734 148.936725 19.379139 13.675803 70.988722 -3.135144 0.009175 -0.874659 14.915337 -8.169337 2.062285 80.687319 -35.344272 -130.024797 -14.653906 16.455389 -72.654619 -3.968011 -43.753009 3.537041 -155.078480 88.002703 -150.689101 -1.539144 -9.625251 -2.552542 0.042169 -0.191340 0.018647 -2.566359 -40.601239 4.711021 75.996233 83.123256 65.568947 -6.528776 -13.775054 8.406002 0.460513 1.233407 0.279681
-97.274657 64.708760 87.356340 174.002311 -37.156302 -2.943790 2.288382 20.969110 2.116846 0.276718 2.802227 0.370375 0.468490 4.568088 0.610830 2.161250 17.933830 2.690341 0.970251 15.597152 -0.908074 2.161502 -6.804220 -2.061389 -2.218001 0.988612 -2.254793 -9.671878 -1.982725 1.054674 -129.286396 -55.743252 148.536261 18.995478 13.579746 70.670468 -3.148401 -0.007085 -0.882187 15.051707 -8.175237 2.043145 80.517685 -35.034677 -130.157419 -14.185744 16.304591 -72.246372 -3.973139 -43.757160 3.522575 -154.872027 88.002997 -150.475433 -1.520207 -9.627838 -2.556982 0.036878 -0.190149 0.018350 -2.561821 -40.606330 4.712389 75.883233 83.136293 65.448033 -6.537093 -13.772252 8.419987 0.463228 1.233492 0.278287
-97.278305 64.704011 87.355911 174.005078 -37.156053 -2.948898 2.284849 20.969397 2.119757 0.274132 2.802252 0.371245 0.465293 4.567976 0.609859 2.154512 17.933563 2.691700 0.974027 15.588747 -0.916766 2.135735 -6.856471 -2.075163 -2.212029 0.970945 -2.259481 -9.773266 -2.010781 1.025886 -128.794913 -55.267261 148.281776 18.562662 13.435403 70.247691 -3.149686 -0.017294 -0.884774 15.137210 -8.172655 2.032766 80.457783 -34.771953 -130.318310 -13.724689 16.140056 -71.838316 -3.985066 -43.750734 3.523063 -154.555236 88.003567 -150.157299 -1.504617 -9.628934 -2.560983 0.035504 -0.189817 0.016995 -2.557091 -40.603384 4.714630 75.832793 83.139724 65.401764 -6.549310 -13.770803 8.418739 0.465435 1.228387 0.275037
-97.283604 64.698905 87.355638 174.007549 -37.154305 -2.948953 2.279729 20.968445 2.117947 0.272298 2.801636 0.372415 0.463134 4.569111 0.609329 2.146426 17.935592 2.694208 0.956423 15.555143 -0.931909 2.141748 -6.860491 -2.082095 -2.201428 0.964072 -2.267341 -9.882493 -2.043453 0.999585 -128.462718 -54.847733 148.168689 18.073718 13.252813 69.701637 -3.140994 -0.023282 -0.892105 15.217752 -8.176526 2.027856 80.444948 -34.543577 -130.496222 -13.261726 15.961266 -71.411295 -3.991018 -43.747043 3.519300 -154.439290 88.006593 -150.042365 -1.504675 -9.633219 -2.565385 0.039326 -0.187522 0.020190 -2.550334 -40.602151 4.710545 75.776546 83.143515 65.342023 -6.548477 -13.767933 8.419990 0.463783 1.226769 0.281140
-97.288160 64.693503 87.355380 174.009340 -37.153307 -2.952022 2.275541 20.966365 2.120720 0.271797 2.802861 0.372675 0.463239 4.569447 0.609204 2.145418 17.936333 2.694950 0.921151 15.517587 -0.941063 2.083304 -6.931737 -2.094179 -2.202716 0.939761 -2.273731 -9.978085 -2.050356 0.973502 -128.279856 -54.479658 148.174770 17.535771 13.055300 69.034804 -3.150570 -0.039700 -0.886722 15.305601 -8.166850 2.021414 80.474550 -34.348184 -130.688231 -12.790973 15.769899 -70.942224 -4.002271 -43.743414 3.520780 -154.498385 88.013215 -150.105688 -1.503041 -9.633624 -2.566732 0.036472 -0.188587 0.020495 -2.550827 -40.601857 4.711329 75.725815 83.149826 65.290191 -6.543492 -13.763300 8.418904 0.471676 1.220561 0.281232
-97.292214 64.687733 87.354752 174.007362 -37.154894 -2.952817 2.272852 20.967529 2.122741 0.274643 2.804392 0.374499 0.459817 4.568719 0.608501 2.144866 17.937235 2.699290 0.883725 15.484880 -0.948732 1.996514 -7.015402 -2.097365 -2.207864 0.916585 -2.282729 -10.053915 -2.055248 0.943795 -128.234189 -54.153910 148.284915 16.958712 12.867189 68.246178 -3.158777 -0.056842 -0.886185 15.383517 -8.159996 2.017790 80.544565 -34.184766 -130.888848 -12.310201 15.565961 -70.415659 -4.038990 -43.735754 3.541701 -154.452507 88.017598 -150.083523 -1.498835 -9.639688 -2.567473 0.036001 -0.185796 0.018863 -2.539795 -40.599702 4.704230 75.705519 83.148752 65.277949 -6.545786 -13.762364 8.417201 0.471334 1.217390 0.278591
-97.294241 64.681098 87.354678 174.009223 -37.154854 -2.961105 2.275603 20.971382 2.139532 0.273934 2.802825 0.371844 0.456295 4.566992 0.606325 2.141028 17.938183 2.705879 0.852414 15.459365 -0.957014 1.904999 -7.085342 -2.080673 -2.220995 0.879360 -2.297480 -10.107942 -2.045720 0.908527 -128.332430 -53.874764 148.506781 16.350072 12.696865 67.320585 -3.171477 -0.093170 -0.881855 15.431832 -8.129476 2.012512 80.687733 -34.064762 -131.103240 -11.814308 15.353966 -69.818722 -4.065444 -43.728952 3.563484 -154.356860 88.022031 -150.001412 -1.502744 -9.648987 -2.568581 0.038084 -0.180238 0.020960 -2.533900 -40.603236 4.699937 75.716318 83.148538 65.299004 -6.532293 -13.757473 8.418392 0.452887 1.206651 0.267671
-97.298268 64.672652 87.355607 174.017750 -37.147792 -2.960147 2.269495 20.968012 2.140890 0.272704 2.801943 0.370415 0.455263 4.569050 0.613982 2.132917 17.936124 2.699888 0.841020 15.449653 -0.963873 1.781361 -7.166964 -2.033980 -2.221282 0.872087 -2.306401 -10.171003 -2.065083 0.868816 -128.639750 -53.662368 148.895030 15.697538 12.539131 66.245989 -3.177941 -0.110217 -0.881807 15.469642 -8.121781 2.010951 80.877399 -33.998043 -131.327472 -11.288994 15.125648 -69.125813 -4.082296 -43.736576 3.565034 -154.178154 88.014544 -149.836773 -1.497127 -9.650173 -2.566570 0.036351 -0.183416 0.021886 -2.534289 -40.611715 4.690966 75.672949 83.152788 65.260017 -6.543797 -13.753289 8.415868 0.467127 1.208171 0.270354
-97.299441 64.664113 87.356524 174.025589 -37.143398 -2.965698 2.265790 20.966174 2.148438 0.271234 2.800386 0.366355 0.455185 4.571015 0.618111 2.129108 17.934745 2.697094 0.793767 15.418202 -0.954404 1.696051 -7.217638 -1.984932 -2.225686 0.844998 -2.312834 -10.230029 -2.063395 0.821823 -129.263484 -53.549605 149.535468 14.974475 12.373504 65.013269 -3.180664 -0.116541 -0.882378 15.562683 -8.163846 2.038258 81.053121 -33.963920 -131.536862 -10.707759 14.855760 -68.294785 -4.097630 -43.741388 3.576363 -153.754732 88.006259 -149.423413 -1.491478 -9.649273 -2.564546 0.038636 -0.187201 0.024237 -2.547189 -40.619909 4.689131 75.668095 83.154245 65.267778 -6.547802 -13.750097 8.396723 0.473214 1.206765 0.273105
